<svg xmlns="http://www.w3.org/2000/svg" style="display:none">
  <!--
    Icon set: Tabler Icons (MIT)
    Source: https://github.com/tabler/tabler-icons
  -->

  <symbol id="i-dashboard" viewBox="0 0 24 24">
    <path d="M5 4h4a1 1 0 0 1 1 1v6a1 1 0 0 1 -1 1h-4a1 1 0 0 1 -1 -1v-6a1 1 0 0 1 1 -1" />
    <path d="M5 16h4a1 1 0 0 1 1 1v2a1 1 0 0 1 -1 1h-4a1 1 0 0 1 -1 -1v-2a1 1 0 0 1 1 -1" />
    <path d="M15 12h4a1 1 0 0 1 1 1v6a1 1 0 0 1 -1 1h-4a1 1 0 0 1 -1 -1v-6a1 1 0 0 1 1 -1" />
    <path d="M15 4h4a1 1 0 0 1 1 1v2a1 1 0 0 1 -1 1h-4a1 1 0 0 1 -1 -1v-2a1 1 0 0 1 1 -1" />
  </symbol>

  <symbol id="i-temperature" viewBox="0 0 24 24">
    <path d="M10 13.5a4 4 0 1 0 4 0v-8.5a2 2 0 0 0 -4 0v8.5" />
    <path d="M10 9l4 0" />
  </symbol>

  <symbol id="i-bolt" viewBox="0 0 24 24">
    <path d="M13 3l0 7l6 0l-8 11l0 -7l-6 0l8 -11" />
  </symbol>

  <symbol id="i-plug" viewBox="0 0 24 24">
    <path d="M9.785 6l8.215 8.215l-2.054 2.054a5.81 5.81 0 1 1 -8.215 -8.215l2.054 -2.054" />
    <path d="M4 20l3.5 -3.5" />
    <path d="M15 4l-3.5 3.5" />
    <path d="M20 9l-3.5 3.5" />
  </symbol>

  <symbol id="i-bulb" viewBox="0 0 24 24">
    <path d="M3 12h1m8 -9v1m8 8h1m-15.4 -6.4l.7 .7m12.1 -.7l-.7 .7" />
    <path d="M9 16a5 5 0 1 1 6 0a3.5 3.5 0 0 0 -1 3a2 2 0 0 1 -4 0a3.5 3.5 0 0 0 -1 -3" />
    <path d="M9.7 17l4.6 0" />
  </symbol>

  <symbol id="i-desktop" viewBox="0 0 24 24">
    <path d="M3 5a1 1 0 0 1 1 -1h16a1 1 0 0 1 1 1v10a1 1 0 0 1 -1 1h-16a1 1 0 0 1 -1 -1v-10" />
    <path d="M7 20h10" />
    <path d="M9 16v4" />
    <path d="M15 16v4" />
  </symbol>

  <symbol id="i-file-text" viewBox="0 0 24 24">
    <path d="M14 3v4a1 1 0 0 0 1 1h4" />
    <path d="M17 21h-10a2 2 0 0 1 -2 -2v-14a2 2 0 0 1 2 -2h7l5 5v11a2 2 0 0 1 -2 2" />
    <path d="M9 9l1 0" />
    <path d="M9 13l6 0" />
    <path d="M9 17l6 0" />
  </symbol>

  <symbol id="i-sun" viewBox="0 0 24 24">
    <path d="M8 12a4 4 0 1 0 8 0a4 4 0 1 0 -8 0" />
    <path d="M3 12h1m8 -9v1m8 8h1m-9 8v1m-6.4 -15.4l.7 .7m12.1 -.7l-.7 .7m0 11.4l.7 .7m-12.1 -.7l-.7 .7" />
  </symbol>

  <symbol id="i-moon" viewBox="0 0 24 24">
    <path d="M12 3c.132 0 .263 0 .393 0a7.5 7.5 0 0 0 7.92 12.446a9 9 0 1 1 -8.313 -12.454l0 .008" />
  </symbol>

  <symbol id="i-chevron-down" viewBox="0 0 24 24">
    <path d="M6 9l6 6l6 -6" />
  </symbol>
</svg>

